<svg width="44" height="44" viewBox="0 0 44 44" fill="none" xmlns="http://www.w3.org/2000/svg">
<rect x="1" y="1" width="42" height="42" rx="4" stroke="#828282" stroke-width="2"/>
<path d="M13.5156 34H21.3438V25.4688H18.5312V22.6562H21.3438V19.1406C21.3438 17.2021 22.9208 15.625 24.8594 15.625H28.375V18.4375H25.5625C24.787 18.4375 24.1562 19.0683 24.1562 19.8438V22.6562H28.2481L27.7794 25.4688H24.1562V34H30.4844C32.4229 34 34 32.4229 34 30.4844V13.5156C34 11.5771 32.4229 10 30.4844 10H13.5156C11.5771 10 10 11.5771 10 13.5156V30.4844C10 32.4229 11.5771 34 13.5156 34ZM11.4062 13.5156C11.4062 12.3525 12.3525 11.4062 13.5156 11.4062H30.4844C31.6475 11.4062 32.5938 12.3525 32.5938 13.5156V30.4844C32.5938 31.6475 31.6475 32.5938 30.4844 32.5938H25.5625V26.875H28.9706L29.9081 21.25H25.5625V19.8438H29.7812V14.2188H24.8594C22.1454 14.2188 19.9375 16.4266 19.9375 19.1406V21.25H17.125V26.875H19.9375V32.5938H13.5156C12.3525 32.5938 11.4062 31.6475 11.4062 30.4844V13.5156Z" fill="#828282"/>
</svg>
