<svg width="44" height="44" viewBox="0 0 44 44" fill="none" xmlns="http://www.w3.org/2000/svg">
<rect x="1" y="1" width="42" height="42" rx="4" stroke="#828282" stroke-width="2"/>
<path d="M26.5 10H17.5C13.3585 10 10 13.3585 10 17.5V26.5C10 30.6415 13.3585 34 17.5 34H26.5C30.6415 34 34 30.6415 34 26.5V17.5C34 13.3585 30.6415 10 26.5 10ZM31.75 26.5C31.75 29.395 29.395 31.75 26.5 31.75H17.5C14.605 31.75 12.25 29.395 12.25 26.5V17.5C12.25 14.605 14.605 12.25 17.5 12.25H26.5C29.395 12.25 31.75 14.605 31.75 17.5V26.5Z" fill="#828282"/>
<path d="M22 16C18.6865 16 16 18.6865 16 22C16 25.3135 18.6865 28 22 28C25.3135 28 28 25.3135 28 22C28 18.6865 25.3135 16 22 16ZM22 25.75C19.933 25.75 18.25 24.067 18.25 22C18.25 19.9315 19.933 18.25 22 18.25C24.067 18.25 25.75 19.9315 25.75 22C25.75 24.067 24.067 25.75 22 25.75Z" fill="#828282"/>
<path d="M28.4501 16.3482C28.8917 16.3482 29.2496 15.9905 29.2496 15.5493C29.2496 15.1081 28.8917 14.7504 28.4501 14.7504C28.0086 14.7504 27.6506 15.1081 27.6506 15.5493C27.6506 15.9905 28.0086 16.3482 28.4501 16.3482Z" fill="#828282"/>
</svg>
