<svg width="262" height="58" viewBox="0 0 262 58" fill="none" xmlns="http://www.w3.org/2000/svg">
<path d="M1.5 56.5V29.6213L29.6213 1.5H260.5V56.5H1.5Z" stroke="white" stroke-width="3"/>
<path d="M34.712 39V24.48L35.6 25.368H29.36V22.2H43.928V25.368H37.688L38.552 24.48V39H34.712ZM52.3453 28.968H60.4332V31.992H52.3453V28.968ZM52.6332 35.88H61.7772V39H48.7692V22.2H61.4653V25.32H52.6332V35.88ZM65.6896 22.2H70.1776L73.6576 27.288L77.1376 22.2H81.6976L76.1056 30.24L82.1536 39H77.5696L73.6576 33.432L69.7936 39H65.3056L71.3056 30.408L65.6896 22.2ZM97.8549 22.2H101.743V39H97.8549V22.2ZM90.2229 39H86.3349V22.2H90.2229V39ZM98.1429 32.112H89.9349V28.824H98.1429V32.112ZM116.392 39.288C115.064 39.288 113.832 39.072 112.696 38.64C111.576 38.208 110.6 37.6 109.768 36.816C108.952 36.032 108.312 35.112 107.848 34.056C107.4 33 107.176 31.848 107.176 30.6C107.176 29.352 107.4 28.2 107.848 27.144C108.312 26.088 108.96 25.168 109.792 24.384C110.624 23.6 111.6 22.992 112.72 22.56C113.84 22.128 115.056 21.912 116.368 21.912C117.696 21.912 118.912 22.128 120.016 22.56C121.136 22.992 122.104 23.6 122.92 24.384C123.752 25.168 124.4 26.088 124.864 27.144C125.328 28.184 125.56 29.336 125.56 30.6C125.56 31.848 125.328 33.008 124.864 34.08C124.4 35.136 123.752 36.056 122.92 36.84C122.104 37.608 121.136 38.208 120.016 38.64C118.912 39.072 117.704 39.288 116.392 39.288ZM116.368 35.976C117.12 35.976 117.808 35.848 118.432 35.592C119.072 35.336 119.632 34.968 120.112 34.488C120.592 34.008 120.96 33.44 121.216 32.784C121.488 32.128 121.624 31.4 121.624 30.6C121.624 29.8 121.488 29.072 121.216 28.416C120.96 27.76 120.592 27.192 120.112 26.712C119.648 26.232 119.096 25.864 118.456 25.608C117.816 25.352 117.12 25.224 116.368 25.224C115.616 25.224 114.92 25.352 114.28 25.608C113.656 25.864 113.104 26.232 112.624 26.712C112.144 27.192 111.768 27.76 111.496 28.416C111.24 29.072 111.112 29.8 111.112 30.6C111.112 31.384 111.24 32.112 111.496 32.784C111.768 33.44 112.136 34.008 112.6 34.488C113.08 34.968 113.64 35.336 114.28 35.592C114.92 35.848 115.616 35.976 116.368 35.976ZM138.899 39.288C137.603 39.288 136.395 39.08 135.275 38.664C134.171 38.232 133.211 37.624 132.395 36.84C131.579 36.056 130.939 35.136 130.475 34.08C130.027 33.024 129.803 31.864 129.803 30.6C129.803 29.336 130.027 28.176 130.475 27.12C130.939 26.064 131.579 25.144 132.395 24.36C133.227 23.576 134.195 22.976 135.299 22.56C136.403 22.128 137.611 21.912 138.923 21.912C140.379 21.912 141.691 22.168 142.859 22.68C144.043 23.176 145.035 23.912 145.835 24.888L143.339 27.192C142.763 26.536 142.123 26.048 141.419 25.728C140.715 25.392 139.947 25.224 139.115 25.224C138.331 25.224 137.611 25.352 136.955 25.608C136.299 25.864 135.731 26.232 135.251 26.712C134.771 27.192 134.395 27.76 134.123 28.416C133.867 29.072 133.739 29.8 133.739 30.6C133.739 31.4 133.867 32.128 134.123 32.784C134.395 33.44 134.771 34.008 135.251 34.488C135.731 34.968 136.299 35.336 136.955 35.592C137.611 35.848 138.331 35.976 139.115 35.976C139.947 35.976 140.715 35.816 141.419 35.496C142.123 35.16 142.763 34.656 143.339 33.984L145.835 36.288C145.035 37.264 144.043 38.008 142.859 38.52C141.691 39.032 140.371 39.288 138.899 39.288ZM161.641 39L156.409 30.912L159.553 29.016L166.057 39H161.641ZM150.721 39V22.2H154.585V39H150.721ZM153.457 32.232V28.992H159.313V32.232H153.457ZM159.913 31.032L156.337 30.6L161.785 22.2H165.889L159.913 31.032ZM170.869 39.264C170.581 39.264 170.277 39.24 169.957 39.192C169.653 39.144 169.317 39.08 168.949 39L169.189 35.712C169.413 35.776 169.645 35.808 169.885 35.808C170.541 35.808 171.053 35.544 171.421 35.016C171.789 34.472 172.053 33.696 172.213 32.688C172.373 31.68 172.477 30.456 172.525 29.016L172.765 22.2H185.677V39H181.837V24.48L182.725 25.368H175.309L176.101 24.432L175.957 28.872C175.909 30.52 175.797 31.984 175.621 33.264C175.445 34.544 175.173 35.632 174.805 36.528C174.437 37.424 173.933 38.104 173.293 38.568C172.653 39.032 171.845 39.264 170.869 39.264ZM190.376 39L197.864 22.2H201.704L209.216 39H205.136L198.992 24.168H200.528L194.36 39H190.376ZM194.12 35.4L195.152 32.448H203.792L204.848 35.4H194.12ZM225.074 37.272V25.368H219.314L219.242 27.816C219.194 28.856 219.122 29.84 219.026 30.768C218.946 31.696 218.818 32.544 218.642 33.312C218.466 34.064 218.234 34.704 217.946 35.232C217.674 35.76 217.33 36.136 216.914 36.36L212.762 35.832C213.338 35.848 213.81 35.648 214.178 35.232C214.562 34.816 214.866 34.232 215.09 33.48C215.314 32.712 215.474 31.816 215.57 30.792C215.682 29.768 215.762 28.656 215.81 27.456L216.002 22.2H228.914V37.272H225.074ZM212.21 42.48L212.234 35.832H231.266V42.48H227.666V39H215.81V42.48H212.21Z" fill="white"/>
</svg>
