<svg width="20" height="24" viewBox="0 0 20 24" fill="none" xmlns="http://www.w3.org/2000/svg">
<path d="M19 10C19 17 10 23 10 23C10 23 1 17 1 10C1 7.61305 1.94821 5.32387 3.63604 3.63604C5.32387 1.94821 7.61305 1 10 1C12.3869 1 14.6761 1.94821 16.364 3.63604C18.0518 5.32387 19 7.61305 19 10Z" stroke="#003A86" stroke-width="2" stroke-linecap="round" stroke-linejoin="round"/>
<path d="M10 13.0002C11.6569 13.0002 13 11.657 13 10.0001C13 8.34318 11.6569 7 10 7C8.34315 7 7 8.34318 7 10.0001C7 11.657 8.34315 13.0002 10 13.0002Z" stroke="#003A86" stroke-width="2" stroke-linecap="round" stroke-linejoin="round"/>
</svg>
