<svg width="44" height="44" viewBox="0 0 44 44" fill="none" xmlns="http://www.w3.org/2000/svg">
<rect x="1" y="1" width="42" height="42" rx="4" stroke="#828282" stroke-width="2"/>
<path d="M22.145 30.5C25.617 30.5 24.379 28.302 24.647 27.67C24.643 27.198 24.639 26.744 24.655 26.468C24.875 26.53 25.394 26.793 26.466 27.835C28.121 29.505 28.544 30.5 29.881 30.5H32.342C33.122 30.5 33.528 30.177 33.731 29.906C33.927 29.644 34.119 29.184 33.909 28.468C33.36 26.744 30.158 23.767 29.959 23.453C29.989 23.395 30.037 23.318 30.062 23.278H30.06C30.692 22.443 33.104 18.829 33.459 17.383C33.46 17.381 33.461 17.378 33.461 17.375C33.653 16.715 33.477 16.287 33.295 16.045C33.021 15.683 32.585 15.5 31.996 15.5H29.535C28.711 15.5 28.086 15.915 27.77 16.672C27.241 18.017 25.755 20.783 24.641 21.762C24.607 20.375 24.63 19.316 24.648 18.529C24.684 16.994 24.8 15.5 23.207 15.5H19.339C18.341 15.5 17.386 16.59 18.42 17.884C19.324 19.018 18.745 19.65 18.94 22.796C18.18 21.981 16.828 19.78 15.872 16.967C15.604 16.206 15.198 15.501 14.055 15.501H11.594C10.596 15.501 10 16.045 10 16.956C10 19.002 14.529 30.5 22.145 30.5ZM14.055 17.001C14.272 17.001 14.294 17.001 14.455 17.458C15.434 20.341 17.63 24.607 19.234 24.607C20.439 24.607 20.439 23.372 20.439 22.907L20.438 19.205C20.372 17.98 19.926 17.37 19.633 17L23.141 17.004C23.143 17.021 23.121 21.099 23.151 22.087C23.151 23.49 24.265 24.294 26.004 22.534C27.839 20.463 29.108 17.367 29.159 17.241C29.234 17.061 29.299 17 29.535 17H31.996H32.006C32.005 17.003 32.005 17.006 32.004 17.009C31.779 18.059 29.558 21.405 28.815 22.444C28.803 22.46 28.792 22.477 28.781 22.494C28.454 23.028 28.188 23.618 28.826 24.448H28.827C28.885 24.518 29.036 24.682 29.256 24.91C29.94 25.616 32.286 28.03 32.494 28.99C32.356 29.012 32.206 28.996 29.881 29.001C29.386 29.001 28.999 28.261 27.522 26.771C26.194 25.479 25.332 24.951 24.547 24.951C23.023 24.951 23.134 26.188 23.148 27.684C23.153 29.306 23.143 28.793 23.154 28.895C23.065 28.93 22.81 29 22.145 29C15.8 29 11.668 18.929 11.509 17.004C11.564 16.999 12.321 17.002 14.055 17.001Z" fill="#828282"/>
</svg>
