<svg width="44" height="44" viewBox="0 0 44 44" fill="none" xmlns="http://www.w3.org/2000/svg">
<rect x="1" y="1" width="42" height="42" rx="4" stroke="#828282" stroke-width="2"/>
<path d="M32.5406 17.42C32.4218 16.9454 32.1799 16.5106 31.8392 16.1594C31.4986 15.8082 31.0713 15.5532 30.6006 15.42C28.8806 15 22.0006 15 22.0006 15C22.0006 15 15.1206 15 13.4006 15.46C12.9298 15.5932 12.5025 15.8482 12.1619 16.1994C11.8213 16.5506 11.5794 16.9854 11.4606 17.46C11.1458 19.2056 10.9918 20.9763 11.0006 22.75C10.9894 24.537 11.1433 26.3213 11.4606 28.08C11.5915 28.5398 11.8389 28.9581 12.1787 29.2945C12.5186 29.6308 12.9394 29.8738 13.4006 30C15.1206 30.46 22.0006 30.46 22.0006 30.46C22.0006 30.46 28.8806 30.46 30.6006 30C31.0713 29.8668 31.4986 29.6118 31.8392 29.2606C32.1799 28.9094 32.4218 28.4746 32.5406 28C32.8529 26.2676 33.0069 24.5103 33.0006 22.75C33.0118 20.963 32.8578 19.1787 32.5406 17.42Z" stroke="#828282" stroke-width="2" stroke-linecap="round" stroke-linejoin="round"/>
<path d="M19.7506 26.02L25.5006 22.75L19.7506 19.48V26.02Z" stroke="#828282" stroke-width="2" stroke-linecap="round" stroke-linejoin="round"/>
</svg>
